PathFileType	4	(X/Y/Z)	 control3min.trc
DataRate	CameraRate	NumFrames	NumMarkers	Units	OrigDataRate	OrigDataStartFrame	OrigNumFrames
200	200	10	35	m	200	1	1000
Frame#	Time	C7			LSH			RSH			MAN			RASI			LASI			HIPR			HIPL			RPSI			LPSI			COX			RTHI1			RTHI2			RTHI3			RTHI4			RSHA1			RSHA2			RSHA3			RSHA4			RHEEL			RMET5			RMET1			RTOE			LTHI1			LTHI2			LTHI3			LTHI4			LSHA1			LSHA2			LSHA3			LSHA4			LHEEL			LMET5			LMET1			LTOE			
		X1	Y1	Z1	X2	Y2	Z2	X3	Y3	Z3	X4	Y4	Z4	X5	Y5	Z5	X6	Y6	Z6	X7	Y7	Z7	X8	Y8	Z8	X9	Y9	Z9	X10	Y10	Z10	X11	Y11	Z11	X12	Y12	Z12	X13	Y13	Z13	X14	Y14	Z14	X15	Y15	Z15	X16	Y16	Z16	X17	Y17	Z17	X18	Y18	Z18	X19	Y19	Z19	X20	Y20	Z20	X21	Y21	Z21	X22	Y22	Z22	X23	Y23	Z23	X24	Y24	Z24	X25	Y25	Z25	X26	Y26	Z26	X27	Y27	Z27	X28	Y28	Z28	X29	Y29	Z29	X30	Y30	Z30	X31	Y31	Z31	X32	Y32	Z32	X33	Y33	Z33	X34	Y34	Z34	X35	Y35	Z35	
1	0.0050	-0.000000	0.000000	-0.000000	-0.211212	1.284166	-0.694245	-0.215318	1.283252	-0.357758	-0.158089	1.264790	-0.528071	-0.150883	0.876655	-0.437803	-0.142802	0.884417	-0.637973	-0.200262	0.917113	-0.392692	-0.192312	0.927480	-0.662061	-0.298016	0.913952	-0.468708	-0.286620	0.921984	-0.582848	-0.297597	0.919723	-0.529427	-0.225806	0.664515	-0.356839	-0.201215	0.608924	-0.357892	-0.141049	0.634007	-0.360730	-0.159091	0.692584	-0.362340	-0.259203	0.276238	-0.337793	-0.281043	0.239010	-0.342202	-0.225699	0.214724	-0.350876	-0.208703	0.251525	-0.350586	-0.394207	0.083680	-0.400454	-0.253572	0.027285	-0.325761	-0.214852	0.032195	-0.406862	-0.189312	0.025492	-0.393665	-0.213452	0.681364	-0.704392	-0.191633	0.623707	-0.705700	-0.130325	0.640709	-0.694672	-0.143370	0.699754	-0.692175	-0.280128	0.244578	-0.702220	-0.302775	0.211532	-0.696630	-0.246958	0.182858	-0.689247	-0.230898	0.223138	-0.696580	-0.397163	0.070259	-0.644201	-0.249687	0.025116	-0.720984	-0.210099	0.030776	-0.645653	-0.184524	0.022061	-0.659499	
2	0.0100	-0.000000	0.000000	-0.000000	-0.210997	1.281185	-0.694440	-0.215711	1.280303	-0.357601	-0.158076	1.261714	-0.527993	-0.151501	0.873711	-0.437424	-0.143653	0.881542	-0.638153	-0.201673	0.913389	-0.392109	-0.193585	0.924099	-0.662468	-0.298918	0.911406	-0.468691	-0.287403	0.919555	-0.582826	-0.298893	0.917431	-0.529181	-0.225839	0.662064	-0.357276	-0.201120	0.606755	-0.358089	-0.141113	0.632088	-0.360958	-0.159381	0.690543	-0.362607	-0.258154	0.274717	-0.338856	-0.280280	0.237728	-0.343174	-0.225091	0.213001	-0.351910	-0.207782	0.249656	-0.351662	-0.394278	0.082408	-0.401732	-0.253786	0.027376	-0.326306	-0.214637	0.032093	-0.407181	-0.189069	0.025464	-0.393849	-0.213468	0.679075	-0.704001	-0.191381	0.621490	-0.705319	-0.130140	0.638800	-0.694348	-0.143455	0.697801	-0.691880	-0.279582	0.243420	-0.701005	-0.302459	0.210583	-0.695335	-0.246830	0.181509	-0.688491	-0.230487	0.221639	-0.695807	-0.397278	0.068940	-0.642898	-0.249842	0.025201	-0.720624	-0.209963	0.030613	-0.645340	-0.184353	0.022040	-0.659454	
3	0.0150	-0.000000	0.000000	-0.000000	-0.210727	1.278719	-0.694601	-0.216109	1.277909	-0.357435	-0.158082	1.259190	-0.527907	-0.151975	0.871441	-0.437175	-0.144334	0.879442	-0.638222	-0.202776	0.910556	-0.391572	-0.194679	0.921606	-0.662779	-0.299598	0.909504	-0.468676	-0.288057	0.917663	-0.582715	-0.299729	0.915534	-0.529170	-0.225897	0.660029	-0.357636	-0.201076	0.605044	-0.358084	-0.141172	0.630513	-0.361255	-0.159654	0.688878	-0.362891	-0.257581	0.273609	-0.339892	-0.279929	0.236833	-0.344131	-0.224901	0.211684	-0.352739	-0.207311	0.248226	-0.352510	-0.394366	0.081267	-0.402942	-0.253981	0.027439	-0.326767	-0.214465	0.032026	-0.407483	-0.188868	0.025444	-0.393970	-0.213430	0.677215	-0.703655	-0.191082	0.619715	-0.704992	-0.129918	0.637311	-0.693993	-0.143484	0.696226	-0.691580	-0.279268	0.242386	-0.699934	-0.302281	0.209722	-0.694223	-0.246801	0.180413	-0.687816	-0.230252	0.220399	-0.695154	-0.397370	0.067786	-0.641793	-0.249985	0.025254	-0.720337	-0.209889	0.030437	-0.645068	-0.184198	0.021988	-0.659378	
4	0.0200	-0.000000	0.000000	-0.000000	-0.210467	1.276398	-0.694752	-0.216503	1.275664	-0.357279	-0.158094	1.256820	-0.527820	-0.152406	0.869371	-0.436946	-0.144965	0.877530	-0.638276	-0.203755	0.908010	-0.391080	-0.195690	0.919362	-0.663045	-0.300212	0.907716	-0.468633	-0.288674	0.915902	-0.582593	-0.300513	0.913758	-0.529162	-0.225936	0.658113	-0.357963	-0.201036	0.603416	-0.358118	-0.141221	0.629008	-0.361544	-0.159889	0.687296	-0.363153	-0.257116	0.272578	-0.340906	-0.279665	0.235991	-0.345076	-0.224764	0.210461	-0.353504	-0.206931	0.246896	-0.353306	-0.394460	0.080172	-0.404065	-0.254176	0.027497	-0.327197	-0.214307	0.031961	-0.407771	-0.188688	0.025418	-0.394077	-0.213391	0.675460	-0.703338	-0.190792	0.618042	-0.704678	-0.129708	0.635919	-0.693640	-0.143516	0.694751	-0.691290	-0.279002	0.241410	-0.698919	-0.302141	0.208900	-0.693169	-0.246797	0.179388	-0.687168	-0.230060	0.219234	-0.694523	-0.397465	0.066688	-0.640757	-0.250121	0.025297	-0.720055	-0.209822	0.030277	-0.644812	-0.184059	0.021945	-0.659315	
5	0.0250	-0.000000	0.000000	-0.000000	-0.210197	1.274517	-0.694877	-0.216903	1.273883	-0.357128	-0.158122	1.254918	-0.527731	-0.152715	0.867886	-0.436798	-0.145456	0.876217	-0.638263	-0.204443	0.906240	-0.390682	-0.196501	0.917840	-0.663208	-0.300648	0.906374	-0.468574	-0.289178	0.914567	-0.582424	-0.301007	0.912341	-0.529208	-0.225969	0.656564	-0.358218	-0.201022	0.602129	-0.358123	-0.141261	0.627776	-0.361849	-0.160066	0.686013	-0.363391	-0.256999	0.271844	-0.341871	-0.279691	0.235402	-0.345985	-0.224892	0.209560	-0.354115	-0.206865	0.245909	-0.353938	-0.394566	0.079207	-0.405044	-0.254355	0.027544	-0.327556	-0.214188	0.031915	-0.408032	-0.188556	0.025396	-0.394144	-0.213332	0.674058	-0.703076	-0.190506	0.616724	-0.704406	-0.129503	0.634853	-0.693280	-0.143526	0.693590	-0.691018	-0.278904	0.240572	-0.698051	-0.302110	0.208176	-0.692282	-0.246864	0.178570	-0.686594	-0.230001	0.218293	-0.693980	-0.397550	0.065744	-0.639910	-0.250241	0.025316	-0.719822	-0.209785	0.030136	-0.644599	-0.183947	0.021897	-0.659253	
6	0.0300	-0.000000	0.000000	-0.000000	-0.209958	1.273060	-0.694983	-0.217251	1.272551	-0.356989	-0.158167	1.253459	-0.527641	-0.152913	0.866918	-0.436687	-0.145810	0.875401	-0.638201	-0.204830	0.905201	-0.390394	-0.197090	0.916956	-0.663252	-0.300921	0.905362	-0.468479	-0.289572	0.913608	-0.582250	-0.301408	0.911312	-0.529181	-0.225961	0.655361	-0.358415	-0.200994	0.601072	-0.358232	-0.141255	0.626735	-0.362134	-0.160140	0.684963	-0.363577	-0.257147	0.271290	-0.342758	-0.279925	0.234926	-0.346835	-0.225160	0.208891	-0.354550	-0.207022	0.245156	-0.354411	-0.394688	0.078370	-0.405801	-0.254520	0.027565	-0.327826	-0.214103	0.031868	-0.408249	-0.188474	0.025341	-0.394165	-0.213278	0.672990	-0.702882	-0.190272	0.615734	-0.704169	-0.129340	0.634062	-0.692930	-0.143541	0.692719	-0.690756	-0.278937	0.239914	-0.697349	-0.302173	0.207580	-0.691564	-0.246979	0.177941	-0.686103	-0.230052	0.217575	-0.693505	-0.397645	0.064953	-0.639249	-0.250338	0.025313	-0.719622	-0.209761	0.030040	-0.644434	-0.183877	0.021865	-0.659211	
7	0.0350	-0.000000	0.000000	-0.000000	-0.209752	1.272100	-0.695064	-0.217575	1.271729	-0.356865	-0.158228	1.252522	-0.527556	-0.152988	0.866542	-0.436620	-0.146020	0.875127	-0.638095	-0.204910	0.904934	-0.390245	-0.197433	0.916733	-0.663174	-0.301053	0.904821	-0.468361	-0.289825	0.913090	-0.582053	-0.301667	0.910726	-0.529129	-0.225932	0.654592	-0.358555	-0.201006	0.600387	-0.358381	-0.141252	0.626005	-0.362404	-0.160141	0.684251	-0.363722	-0.257564	0.270986	-0.343546	-0.280360	0.234628	-0.347588	-0.225579	0.208511	-0.354854	-0.207400	0.244715	-0.354749	-0.394818	0.077712	-0.406334	-0.254656	0.027588	-0.328019	-0.214058	0.031830	-0.408425	-0.188445	0.025283	-0.394158	-0.213245	0.672336	-0.702738	-0.190116	0.615139	-0.703956	-0.129241	0.633608	-0.692605	-0.143561	0.692204	-0.690541	-0.279108	0.239456	-0.696832	-0.302335	0.207142	-0.691044	-0.247150	0.177538	-0.685706	-0.230217	0.217119	-0.693122	-0.397734	0.064362	-0.638802	-0.250407	0.025296	-0.719469	-0.209758	0.029973	-0.644319	-0.183843	0.021842	-0.659184	
8	0.0400	-0.000000	0.000000	-0.000000	-0.209597	1.271654	-0.695121	-0.217861	1.271430	-0.356749	-0.158307	1.252127	-0.527480	-0.152940	0.866710	-0.436575	-0.146092	0.875341	-0.637953	-0.204732	0.905335	-0.390227	-0.197547	0.917081	-0.662985	-0.301077	0.904733	-0.468257	-0.289935	0.913006	-0.581854	-0.301683	0.910572	-0.528985	-0.225899	0.654290	-0.358657	-0.201070	0.600094	-0.358561	-0.141269	0.625614	-0.362658	-0.160086	0.683904	-0.363829	-0.258182	0.270881	-0.344215	-0.280932	0.234468	-0.348223	-0.226077	0.208395	-0.355064	-0.207938	0.244574	-0.355004	-0.394948	0.077238	-0.406641	-0.254755	0.027603	-0.328148	-0.214048	0.031799	-0.408558	-0.188460	0.025223	-0.394132	-0.213253	0.672138	-0.702625	-0.190080	0.614968	-0.703761	-0.129229	0.633495	-0.692318	-0.143596	0.692061	-0.690371	-0.279392	0.239210	-0.696494	-0.302583	0.206881	-0.690715	-0.247368	0.177379	-0.685411	-0.230476	0.216940	-0.692831	-0.397808	0.063977	-0.638570	-0.250442	0.025269	-0.719360	-0.209771	0.029930	-0.644250	-0.183843	0.021834	-0.659179	
9	0.0450	-0.000000	0.000000	-0.000000	-0.209498	1.271738	-0.695160	-0.218098	1.271675	-0.356644	-0.158406	1.252285	-0.527413	-0.152779	0.867370	-0.436532	-0.146035	0.876002	-0.637781	-0.204358	0.906286	-0.390310	-0.197459	0.917907	-0.662709	-0.300998	0.905088	-0.468152	-0.289900	0.913362	-0.581668	-0.301609	0.910894	-0.528755	-0.225877	0.654465	-0.358742	-0.201193	0.600220	-0.358778	-0.141318	0.625565	-0.362881	-0.159995	0.683938	-0.363917	-0.258931	0.270958	-0.344724	-0.281579	0.234431	-0.348717	-0.226627	0.208522	-0.355213	-0.208586	0.244711	-0.355191	-0.395071	0.076964	-0.406749	-0.254803	0.027621	-0.328213	-0.214065	0.031770	-0.408648	-0.188508	0.025159	-0.394093	-0.213322	0.672427	-0.702513	-0.190189	0.615252	-0.703567	-0.129322	0.633742	-0.692080	-0.143656	0.692309	-0.690236	-0.279779	0.239212	-0.696338	-0.302903	0.206837	-0.690574	-0.247618	0.177467	-0.685223	-0.230817	0.217055	-0.692642	-0.397863	0.063813	-0.638538	-0.250446	0.025245	-0.719305	-0.209792	0.029912	-0.644225	-0.183869	0.021835	-0.659185	
10	0.0500	-0.000000	0.000000	-0.000000	-0.209457	1.272357	-0.695179	-0.218287	1.272460	-0.356551	-0.158525	1.253003	-0.527358	-0.152512	0.868457	-0.436486	-0.145855	0.877074	-0.637577	-0.203847	0.907675	-0.390442	-0.197215	0.919117	-0.662387	-0.300830	0.905922	-0.468020	-0.289728	0.914157	-0.581484	-0.301400	0.911667	-0.528522	-0.225889	0.655136	-0.358820	-0.201400	0.600801	-0.358958	-0.141426	0.625889	-0.363090	-0.159908	0.684388	-0.364010	-0.259756	0.271204	-0.345075	-0.282257	0.234532	-0.349052	-0.227174	0.208874	-0.355323	-0.209299	0.245113	-0.355340	-0.395169	0.076902	-0.406686	-0.254803	0.027637	-0.328229	-0.214102	0.031745	-0.408699	-0.188582	0.025094	-0.394049	-0.213460	0.673230	-0.702377	-0.190451	0.616005	-0.703364	-0.129531	0.634368	-0.691896	-0.143743	0.692965	-0.690132	-0.280255	0.239480	-0.696339	-0.303288	0.207037	-0.690596	-0.247896	0.177833	-0.685145	-0.231232	0.217484	-0.692555	-0.397885	0.063894	-0.638687	-0.250418	0.025227	-0.719302	-0.209827	0.029897	-0.644237	-0.183916	0.021843	-0.659198	
